<svg xmlns="http://www.w3.org/2000/svg" width="16" height="16" viewBox="0 0 16 16"><path d="M14 6c-.55 0-1 .45-1 1v4c0 .55.45 1 1 1s1-.45 1-1V7c0-.55-.45-1-1-1zM2 6c-.55 0-1 .45-1 1v4c0 .55.45 1 1 1s1-.45 1-1V7c0-.55-.45-1-1-1zm1.5 5.5c0 .828.672 1.5 1.5 1.5v2c0 .55.45 1 1 1s1-.45 1-1v-2h2v2c0 .55.45 1 1 1s1-.45 1-1v-2c.828 0 1.5-.672 1.5-1.5V6h-9v5.5zM12.472 5c-.152-1.373-.922-2.56-2.025-3.276l.5-1c.123-.248.023-.548-.224-.672s-.547-.023-.67.224L9.55 1.28l-.13-.052C8.974 1.08 8.496.998 8 .998s-.974.082-1.42.23l-.13.052L5.948.276C5.825.03 5.524-.07 5.278.052s-.348.424-.225.67l.5 1.002C4.45 2.44 3.68 3.627 3.528 5v.5H12.5V5h-.028zM6.5 4c-.276 0-.5-.224-.5-.5s.223-.5.5-.5.5.224.5.5-.224.5-.5.5zm3 0c-.276 0-.5-.224-.5-.5s.223-.5.5-.5h.002c.276 0 .5.224.5.5s-.225.5-.5.5z"/></svg>