<svg xmlns="http://www.w3.org/2000/svg" width="16" height="16" viewBox="0 0 16 16"><path d="M12.367 8.5c-.02-2.025 1.652-2.997 1.727-3.045-.94-1.375-2.404-1.564-2.926-1.585-1.246-.126-2.43.734-3.064.734-.63 0-1.607-.715-2.64-.696-1.358.02-2.61.79-3.31 2.006-1.41 2.448-.36 6.076 1.014 8.06.672.973 1.473 2.065 2.525 2.026 1.013-.04 1.396-.656 2.62-.656s1.57.656 2.642.635c1.09-.02 1.78-.992 2.448-1.967.772-1.128 1.09-2.22 1.108-2.275-.023-.01-2.125-.816-2.146-3.236zm-2.014-5.945c.558-.677.935-1.617.832-2.555-.804.033-1.78.536-2.356 1.212-.52.6-.972 1.557-.85 2.476.897.07 1.814-.456 2.372-1.132z"/></svg>