<svg width="13" height="13" viewBox="0 0 13 13" xmlns="http://www.w3.org/2000/svg"><path d="M10.563 0H8.937v1.625h1.626V0zm1.624 0h-.812v2.438h-3.25V0h-3.25v2.438h-3.25V0H.812C.362 0 0 .364 0 .813v11.374c0 .45.363.813.813.813h11.374c.45 0 .813-.363.813-.813V.813c0-.45-.363-.813-.813-.813zm-.812 11.375h-9.75V4.062h9.75v7.313zM4.062 0H2.438v1.625h1.626V0zm3.25 5.688H5.688v1.625h1.625V5.688zm2.438 0H8.125v1.625H9.75V5.688zM4.875 8.124H3.25V9.75h1.625V8.125zm0-2.438H3.25v1.625h1.625V5.688zm2.438 2.438H5.688V9.75h1.625V8.125zm2.437 0H8.125V9.75H9.75V8.125z"/></svg>
