<svg xmlns="http://www.w3.org/2000/svg" width="15" height="16" viewBox="0 0 15 16"><path fill-rule="evenodd" d="M14.548 6.132L8.965 4.635 7.988.99c-.082-.305-.41-.482-.73-.397L.45 2.417c-.32.085-.513.403-.43.708l2.42 9.038c.083.304.41.482.73.395l2.71-.725-.37 1.378c-.082.306.112.624.433.708l6.082 1.63c.32.087.647-.09.73-.396L14.98 6.84c.08-.305-.113-.623-.434-.708zM1.225 3.294l5.872-1.572L9.27 9.835l-5.872 1.572-2.173-8.113zm10.533 11.124l-5.11-1.397.402-1.5 2.925-.786c.32-.085.516-.403.434-.707l-1.132-4.22 4.46 1.223-1.98 7.388z"/></svg>