<svg xmlns="http://www.w3.org/2000/svg" width="16" height="16" viewBox="0 0 16 16"><path d="M14.59 9.535c-.84-1.454-.335-3.317 1.127-4.164L14.145 2.65c-.45.263-.972.414-1.53.414-1.68 0-3.04-1.37-3.04-3.062H6.428c.003.522-.127 1.05-.407 1.535-.84 1.454-2.706 1.948-4.17 1.106L.28 5.365c.454.257.846.634 1.124 1.117.838 1.453.336 3.312-1.12 4.16l1.572 2.724c.448-.26.967-.41 1.522-.41 1.675 0 3.033 1.362 3.042 3.046h3.145c0-.517.13-1.04.406-1.52.84-1.45 2.7-1.946 4.164-1.11l1.572-2.722c-.45-.257-.84-.633-1.116-1.113zM8 11.24c-1.79 0-3.24-1.45-3.24-3.24S6.21 4.76 8 4.76c1.79 0 3.24 1.45 3.24 3.24S9.79 11.24 8 11.24z"/></svg>