<svg xmlns="http://www.w3.org/2000/svg" width="20" height="20" viewBox="0 0 20 20"><path d="M12.432 0c1.34 0 2.01.912 2.01 1.957 0 1.305-1.164 2.512-2.68 2.512-1.268 0-2.008-.75-1.973-1.99 0-1.044.88-2.48 2.642-2.48zM8.31 20c-1.06 0-1.834-.652-1.094-3.524l1.214-5.092c.21-.814.246-1.14 0-1.14-.317 0-1.69.56-2.502 1.116l-.528-.88c2.572-2.186 5.53-3.467 6.8-3.467 1.058 0 1.234 1.273.706 3.23l-1.39 5.352c-.247.945-.142 1.27.105 1.27.318 0 1.358-.39 2.38-1.206l.6.813C12.098 19.02 9.365 20 8.31 20z"/></svg>