<svg xmlns="http://www.w3.org/2000/svg" width="16" height="16" viewBox="0 0 16 16"><path d="M8.87 11.514c-1.28.596-2.47.59-3.27.532-.955-.07-1.722-.33-2.06-.558-.207-.14-.49-.086-.63.122s-.086.49.122.63c.542.368 1.5.64 2.503.713.17.012.356.02.557.02.872 0 1.98-.083 3.163-.634.228-.107.326-.377.22-.605s-.376-.326-.604-.22zm5.05-.673c.045-3.947.45-11.408-7.108-10.805C-.65.635 1.328 8.52 1.217 11.16 1.117 12.555.655 14.262 0 16h2.017c.207-.736.36-1.464.425-2.16.122.086.252.168.39.246.227.133.42.31.627.497.48.438 1.024.934 2.088.996.07.003.143.005.214.005 1.077 0 1.813-.47 2.404-.85.283-.18.528-.338.76-.413.654-.205 1.226-.536 1.654-.957.067-.066.13-.133.187-.202.238.873.564 1.856.926 2.836H16c-1.034-1.598-2.1-3.163-2.08-5.16zM1.94 8.694c-.075-1.29.54-2.373 1.376-2.422s1.57.958 1.645 2.246c.005.07.007.14.007.207-.264.066-.503.163-.717.275 0-.01 0-.02-.002-.03-.07-.73-.462-1.283-.873-1.233S2.69 8.42 2.76 9.15c.032.32.124.604.252.82l-.225.165-.286.21c-.31-.408-.523-.993-.56-1.655zm8.455 3.185c-.03.68-.92 1.322-1.743 1.58h-.005c-.342.112-.647.307-.97.514-.543.347-1.104.706-1.914.706-.053 0-.108-.002-.16-.005-.743-.043-1.09-.36-1.53-.76-.232-.212-.472-.43-.78-.612l-.008-.003c-.667-.377-1.08-.845-1.108-1.253-.013-.203.077-.378.268-.522.416-.312.695-.516.88-.65.204-.15.266-.196.312-.24.033-.03.068-.065.106-.103.382-.372 1.02-.994 2.002-.994.6 0 1.264.23 1.97.686.334.217.624.317.99.444.253.087.54.186.923.35l.006.003c.357.146.78.414.76.857zm-.197-1.6c-.07-.035-.14-.068-.215-.098-.345-.148-.622-.248-.852-.328.128-.248.207-.558.214-.894.018-.818-.395-1.483-.922-1.484s-.968.66-.986 1.48v.08c-.324-.15-.643-.26-.956-.325 0-.032-.003-.062-.004-.093-.03-1.492.884-2.726 2.043-2.757s2.12 1.152 2.152 2.642c.014.675-.167 1.296-.475 1.777z"/></svg>