<svg width="205" height="20" xmlns="http://www.w3.org/2000/svg"><title>VDMS White</title><g fill="#FFF" fill-rule="evenodd"><path d="M77.59.358l-4.344 9.42-1.643-3.577h-1.76l2.7 5.844h1.408L79.31.358zM59.004 17.809h3.482v-6.48c0-1.47.861-2.504 2.113-2.504 1.213 0 1.84.874 1.84 2.107v6.916h3.482v-7.592c0-2.584-1.526-4.373-3.991-4.373-1.565 0-2.661.676-3.483 1.948h-.078v-1.59h-3.365v11.568zM52.157 5.883c-3.64 0-6.065 2.664-6.065 6.162 0 3.458 2.426 6.161 6.065 6.161 3.639 0 6.065-2.663 6.065-6.161.039-3.498-2.426-6.162-6.065-6.162zm0 9.7c-1.644 0-2.543-1.392-2.543-3.538 0-2.147.86-3.538 2.543-3.538 1.643 0 2.582 1.391 2.582 3.538-.039 2.107-.939 3.538-2.582 3.538zm-16.003 2.226h9.782v-2.783h-5.557v-.08l5.283-6.042V6.161h-9.547v2.783h5.36v.08l-5.36 6.082v2.703h.039zm-4.46 0h3.52V6.16h-3.52V17.81zm-8.14 0h3.483v-5.327c0-2.425 1.448-3.498 3.639-3.22h.078v-3.06c-.196-.08-.391-.08-.704-.08-1.37 0-2.27.636-3.052 1.987h-.078V6.161h-3.326V17.81h-.04zm-6.416-2.226c-1.526 0-2.465-1.034-2.66-2.584h8.255c.04-2.505-.626-4.492-1.995-5.764-.979-.915-2.23-1.392-3.835-1.392-3.443 0-5.83 2.664-5.83 6.122 0 3.498 2.27 6.162 6.065 6.162 1.448 0 2.582-.398 3.521-1.034 1.018-.715 1.722-1.71 1.917-2.743h-3.404c-.313.795-1.017 1.233-2.034 1.233zm-.196-7.195c1.213 0 2.074.914 2.23 2.305h-4.656c.235-1.391.978-2.305 2.426-2.305zM4.07 17.808h3.678l3.991-11.607H8.217l-2.23 7.474h-.04L3.717 6.2h-3.6L4.07 17.81zm27.624-15.74h3.522v3.14h-3.522v-3.14z"/><g><path d="M93.143 14.857c0-1.74.98-3.006 2.432-3.006.785 0 1.295.356 1.688.949h.039c-.04-.356-.04-.83-.04-1.305V9.754h1.648v7.951h-1.608v-.83h-.04c-.313.712-.941 1.028-1.726 1.028-1.451-.04-2.393-1.187-2.393-3.046zm4.12 0c0-.989-.432-1.74-1.256-1.74-.785 0-1.177.712-1.177 1.7 0 1.03.392 1.702 1.177 1.702s1.256-.673 1.256-1.662zM99.97 9.754h1.687v1.464H99.97V9.754zm.04 2.255h1.647v5.696h-1.648V12.01zM102.677 17.903h1.609c.117.356.431.594 1.06.594.784 0 1.176-.396 1.176-1.108v-.119c0-.277 0-.554.04-.751h-.04c-.314.554-.824.83-1.53.83-1.295 0-2.472-.989-2.472-2.69 0-1.661.981-2.808 2.354-2.808.746 0 1.295.237 1.609.87h.04v-.712h1.608v5.182c0 .831-.275 1.464-.746 1.86-.47.435-1.216.633-2.04.633-1.53 0-2.511-.673-2.668-1.78zm3.924-3.323c0-.83-.432-1.464-1.217-1.464-.745 0-1.177.594-1.177 1.504s.471 1.464 1.217 1.464c.784 0 1.177-.633 1.177-1.504zM109.23 9.754h1.686v1.464h-1.687V9.754zm.039 2.255h1.647v5.696h-1.647V12.01zM111.701 12.009h.863v-1.82h1.648v1.82h1.099v1.068h-1.099v2.809c0 .435.236.554.628.554.118 0 .275 0 .392-.04h.079v1.266c-.196.04-.51.08-.981.08-1.06 0-1.766-.357-1.766-1.504v-3.165h-.863v-1.068zM119.666 16.993c-.392.515-.863.831-1.726.831-1.099 0-1.923-.593-1.923-1.7 0-1.267.981-1.583 2.197-1.742 1.02-.158 1.413-.316 1.413-.712 0-.395-.275-.672-.824-.672-.628 0-.942.316-.981.751h-1.53c.039-.989.824-1.898 2.51-1.898.707 0 1.217.118 1.61.356.588.356.863.91.863 1.7v2.928c0 .435.078.712.196.791v.08h-1.609a2.245 2.245 0 0 1-.196-.713zm.04-1.345v-.751c-.236.158-.59.237-.982.316-.745.158-1.098.356-1.098.831s.353.672.824.672c.745.04 1.255-.435 1.255-1.068zM122.412 9.754h1.688v7.951h-1.688zM127.748 12.009h1.61v.87h.038c.353-.672.903-1.028 1.688-1.028.745 0 1.255.356 1.53 1.068h.039c.47-.752 1.099-1.068 1.805-1.068 1.255 0 1.883.83 1.883 2.096v3.758h-1.648v-3.48c0-.634-.314-.99-.824-.99-.588 0-.98.514-.98 1.227v3.243h-1.649v-3.48c0-.634-.274-.99-.824-.99-.588 0-.98.514-.98 1.227v3.243h-1.648V12.01h-.04zM137.126 14.857c0-1.701 1.177-3.006 2.903-3.006.824 0 1.452.276 1.923.712.627.633.902 1.582.902 2.69h-4.12c.118.87.55 1.384 1.374 1.384.51 0 .863-.197 1.02-.553h1.608c-.274.989-1.216 1.78-2.668 1.78-1.804 0-2.942-1.306-2.942-3.007zm1.648-.554h2.393c-.04-.79-.51-1.266-1.138-1.266-.745 0-1.138.475-1.255 1.266zM143.443 14.857c0-1.74.98-3.006 2.432-3.006.785 0 1.295.356 1.687.949h.04c-.04-.356-.04-.83-.04-1.305V9.754h1.648v7.951h-1.608v-.83h-.04c-.314.712-.941 1.028-1.726 1.028-1.412-.04-2.393-1.187-2.393-3.046zm4.159 0c0-.989-.432-1.74-1.256-1.74-.785 0-1.177.712-1.177 1.7 0 1.03.392 1.702 1.177 1.702s1.256-.673 1.256-1.662zM150.309 9.754h1.687v1.464h-1.687V9.754zm0 2.255h1.648v5.696h-1.648V12.01zM156.508 16.993c-.392.515-.863.831-1.726.831-1.099 0-1.923-.593-1.923-1.7 0-1.267.981-1.583 2.197-1.742 1.02-.158 1.413-.316 1.413-.712 0-.395-.275-.672-.824-.672-.628 0-.942.316-.981.751h-1.53c.039-.989.824-1.898 2.51-1.898.707 0 1.217.118 1.61.356.588.356.863.91.863 1.7v2.928c0 .435.078.712.196.791v.08h-1.609a2.245 2.245 0 0 1-.196-.713zm0-1.345v-.751c-.235.158-.588.237-.98.316-.746.158-1.1.356-1.1.831s.354.672.825.672c.784.04 1.255-.435 1.255-1.068zM161.412 15.925h1.57c.078.554.51.831 1.138.831.588 0 .941-.237.941-.633 0-.514-.667-.593-1.451-.712-1.02-.198-2.04-.435-2.04-1.78 0-1.147 1.059-1.78 2.354-1.78 1.569 0 2.354.672 2.51 1.661h-1.53c-.117-.396-.431-.593-.941-.593s-.824.197-.824.593c0 .435.628.475 1.373.633 1.02.198 2.158.435 2.158 1.899 0 1.226-1.099 1.86-2.55 1.86-1.648-.04-2.63-.831-2.708-1.979zM167.22 14.857c0-1.701 1.176-3.006 2.903-3.006.824 0 1.451.276 1.922.712.628.633.903 1.582.903 2.69h-4.08c.117.87.548 1.384 1.372 1.384.51 0 .864-.197 1.02-.553h1.61c-.275.989-1.217 1.78-2.669 1.78-1.844 0-2.982-1.306-2.982-3.007zm1.647-.554h2.394c-.04-.79-.51-1.266-1.138-1.266-.746 0-1.138.475-1.256 1.266zM175.42 13.037c.392-.79.902-1.107 1.608-1.107.157 0 .275 0 .353.04v1.463h-.039c-.118-.04-.235-.04-.353-.04-.902 0-1.491.554-1.491 1.662v2.65h-1.648V12.01h1.609v1.028h-.04zM177.813 12.009h1.726l.706 2.294c.236.752.432 1.978.432 1.978h.04s.195-1.226.43-1.978l.707-2.294h1.687l-1.962 5.696h-1.804l-1.962-5.696zM184.13 9.754h1.687v1.464h-1.687V9.754zm0 2.255h1.648v5.696h-1.648V12.01zM186.64 14.857c0-1.701 1.139-3.006 2.944-3.006 1.49 0 2.432.87 2.628 2.096h-1.608c-.118-.514-.471-.87-1.02-.87-.824 0-1.256.712-1.256 1.78 0 1.029.432 1.74 1.256 1.74.627 0 .98-.355 1.059-1.028h1.609c-.04 1.306-1.06 2.295-2.63 2.295-1.804 0-2.981-1.306-2.981-3.007zM192.762 14.857c0-1.701 1.177-3.006 2.903-3.006.824 0 1.452.276 1.923.712.627.633.902 1.582.902 2.69h-4.12c.118.87.55 1.384 1.373 1.384.51 0 .864-.197 1.02-.553h1.61c-.275.989-1.217 1.78-2.669 1.78-1.805 0-2.942-1.306-2.942-3.007zm1.647-.554h2.394c-.04-.79-.51-1.266-1.138-1.266-.785 0-1.177.475-1.256 1.266zM198.96 15.925h1.57c.079.554.51.831 1.138.831.589 0 .942-.237.942-.633 0-.514-.667-.593-1.452-.712-1.02-.198-2.04-.435-2.04-1.78 0-1.147 1.06-1.78 2.393-1.78 1.57 0 2.354.672 2.511 1.661h-1.53c-.118-.396-.432-.593-.942-.593s-.824.197-.824.593c0 .435.628.475 1.374.633 1.02.198 2.158.435 2.158 1.899 0 1.226-1.099 1.86-2.55 1.86-1.649-.04-2.669-.831-2.747-1.979z"/></g></g></svg>