<svg width="162px" height="14px" viewBox="0 0 162 14" version="1.1" xmlns="http://www.w3.org/2000/svg" xmlns:xlink="http://www.w3.org/1999/xlink"><defs></defs><g id="Page-1" stroke="none" stroke-width="1" fill="none" fill-rule="evenodd"><path d="M4.32610644,10.7942656 C7.11217498,10.7942656 8.61021184,9.39423113 8.61021184,6.97217154 L8.61021184,0.182004478 L6.21615294,0.182004478 L6.21615294,6.98617188 C6.21615294,8.12019978 5.57213709,8.86221804 4.32610644,8.86221804 C2.98207337,8.86221804 2.38005856,8.16220082 2.38005856,7.02817292 L2.38005856,0.182004478 L0,0.182004478 L0,6.97217154 C0,9.42223182 1.49803686,10.7942656 4.32610644,10.7942656 L4.32610644,10.7942656 Z M10.0942484,13.0763217 L12.2923024,13.0763217 L12.2923024,11.298278 C12.2923024,10.5002583 12.2503014,9.95424491 12.2223007,9.67423802 L12.2503014,9.67423802 C12.6843121,10.4022559 13.4683314,10.8362666 14.4483555,10.8362666 C16.4364044,10.8362666 17.7244361,9.29622872 17.7244361,6.87416913 C17.7244361,4.59211298 16.4924058,2.94007234 14.5183572,2.94007234 C13.4963321,2.94007234 12.7543138,3.36008267 12.2503014,4.21410368 L12.2083004,4.21410368 L12.2083004,3.1500775 L10.0942484,3.1500775 L10.0942484,13.0763217 Z M13.9303427,9.12822458 C12.8103152,9.12822458 12.2223007,8.2182022 12.2223007,6.94417085 C12.2223007,5.68413985 12.7683141,4.69011539 13.902342,4.69011539 C14.9803686,4.69011539 15.4983813,5.61413813 15.4983813,6.94417085 C15.4983813,8.27420357 14.9243672,9.12822458 13.9303427,9.12822458 L13.9303427,9.12822458 Z M18.858464,10.5982608 L21.0705184,10.5982608 L21.0705184,0.182004478 L18.858464,0.182004478 L18.858464,10.5982608 Z M24.1645945,13.0903221 C25.5926297,13.0903221 26.2786465,12.5023076 26.8806614,10.7802652 L29.5407268,3.1500775 L27.3566731,3.1500775 L26.4466507,6.00614777 C26.1246428,7.00017223 25.7886345,8.5962115 25.7886345,8.5962115 L25.7606338,8.5962115 C25.7606338,8.5962115 25.4806269,7.01417257 25.1446186,6.00614777 L24.1925952,3.1500775 L21.8825384,3.1500775 L24.1925952,9.1002239 C24.4586018,9.77224043 24.5846049,10.3462546 24.5846049,10.5982608 C24.5426038,11.1022732 24.2065956,11.3542794 23.5205787,11.3542794 C23.4645773,11.3542794 22.8345618,11.3542794 22.8065611,11.340279 L22.6945584,11.340279 L22.6945584,13.0623214 C22.7365594,13.0763217 24.0945928,13.0903221 24.1645945,13.0903221 L24.1645945,13.0903221 Z M32.4667988,3.1500775 L30.3387464,3.1500775 L30.3387464,10.5982608 L32.5368005,10.5982608 L32.5368005,6.39815742 C32.5368005,5.44613399 33.1108146,4.76011711 33.9648356,4.76011711 C34.7768556,4.76011711 35.2108663,5.30613055 35.2108663,6.11815053 L35.2108663,10.5982608 L37.39492,10.5982608 L37.39492,5.69814019 C37.39492,4.0320992 36.4428966,2.94007234 34.8048563,2.94007234 C33.7688308,2.94007234 32.9708112,3.38808336 32.5087998,4.2841054 L32.4667988,4.2841054 L32.4667988,3.1500775 Z M43.653074,10.5982608 L46.2011367,10.5982608 L43.2330637,5.90814536 L45.8931291,3.1500775 L43.3450664,3.1500775 L40.8950062,5.82414329 C40.9230068,5.34813158 40.9650079,4.52211126 40.9650079,3.43008439 L40.9650079,0.182004478 L38.7949545,0.182004478 L38.7949545,10.5982608 L40.9650079,10.5982608 L40.9650079,8.12019978 L41.7070261,7.35018084 L43.653074,10.5982608 Z M53.2713107,10.5982608 L55.7773723,10.5982608 L59.221457,0.182004478 L56.8133978,0.182004478 L55.2873603,5.19412779 C54.951352,6.34215604 54.587343,8.26020323 54.587343,8.26020323 L54.5593423,8.26020323 C54.5593423,8.26020323 54.1953334,6.34215604 53.8453248,5.19412779 L52.3052869,0.182004478 L49.8272259,0.182004478 L53.2713107,10.5982608 Z M60.0754781,2.10005167 L62.3015328,2.10005167 L62.3015328,0.182004478 L60.0754781,0.182004478 L60.0754781,2.10005167 Z M60.0894784,10.5982608 L62.2875325,10.5982608 L62.2875325,3.1500775 L60.0894784,3.1500775 L60.0894784,10.5982608 Z M66.5856382,10.8362666 C67.593663,10.8362666 68.4196834,10.4162563 68.853694,9.50623389 L68.8816947,9.50623389 L68.8816947,10.5982608 L70.9957467,10.5982608 L70.9957467,0.182004478 L68.7976927,0.182004478 L68.7976927,2.46406062 C68.7976927,3.09407612 68.8256933,3.72409163 68.853694,4.18610299 L68.8256933,4.18610299 C68.3216809,3.41608405 67.6356641,2.94007234 66.6136389,2.94007234 C64.6815914,2.94007234 63.3935597,4.59211298 63.3935597,6.87416913 C63.3935597,9.33822975 64.6535907,10.8362666 66.5856382,10.8362666 L66.5856382,10.8362666 Z M67.1736527,9.07222321 C66.1516276,9.07222321 65.6336148,8.20420185 65.6336148,6.86016878 C65.6336148,5.53013606 66.1516276,4.60611333 67.187653,4.60611333 C68.3216809,4.60611333 68.8676944,5.55813675 68.8676944,6.87416913 C68.8676944,8.17620116 68.2376789,9.07222321 67.1736527,9.07222321 L67.1736527,9.07222321 Z M76.0358707,10.8222663 C77.9539179,10.8222663 79.1719479,9.81424146 79.5499572,8.49820908 L77.4219048,8.49820908 C77.183899,8.96022045 76.7498883,9.226227 76.0638714,9.226227 C74.9998452,9.226227 74.3978304,8.55421046 74.257827,7.43418291 L79.6899606,7.43418291 C79.703961,5.96414674 79.3259517,4.70411574 78.485931,3.89209576 C77.8279148,3.29008095 76.9878942,2.94007234 75.923868,2.94007234 C73.6558122,2.94007234 72.1017739,4.64811436 72.1017739,6.88816947 C72.1017739,9.11422424 73.5998108,10.8222663 76.0358707,10.8222663 L76.0358707,10.8222663 Z M75.923868,4.49411057 C76.7918893,4.49411057 77.3799038,5.12412607 77.4499055,6.16015156 L74.2718273,6.16015156 C74.4118308,5.13812642 74.9158432,4.49411057 75.923868,4.49411057 L75.923868,4.49411057 Z M84.3940764,10.8362666 C86.7601346,10.8362666 88.3141728,9.11422424 88.3141728,6.88816947 C88.3141728,4.64811436 86.7601346,2.94007234 84.3940764,2.94007234 C82.0140178,2.94007234 80.4459792,4.64811436 80.4459792,6.88816947 C80.4459792,9.11422424 82.0140178,10.8362666 84.3940764,10.8362666 L84.3940764,10.8362666 Z M84.380076,9.24022734 C83.2600485,9.24022734 82.672034,8.28820392 82.672034,6.88816947 C82.672034,5.47413468 83.2600485,4.50811091 84.380076,4.50811091 C85.4721029,4.50811091 86.0881181,5.47413468 86.0881181,6.88816947 C86.0881181,8.28820392 85.4721029,9.24022734 84.380076,9.24022734 L84.380076,9.24022734 Z M97.0363874,10.850267 C99.416446,10.850267 101.236491,9.64623733 101.236491,7.49018428 C101.236491,5.2921302 99.5144484,4.67611505 97.6384022,4.25610471 C96.0003619,3.89209576 95.1043399,3.71009128 95.1043399,2.8980713 C95.1043399,2.24005511 95.7623561,1.82004478 96.7423802,1.82004478 C97.7784057,1.82004478 98.4224215,2.29605649 98.5484246,3.10807647 L100.886482,3.10807647 C100.732478,1.06402618 99.1084384,0 96.8123819,0 C94.5163254,0 92.752282,0.980024112 92.752282,3.13607716 C92.752282,5.30613055 94.4043227,5.81014295 96.4343726,6.27215432 C97.9464098,6.62216293 98.8284315,6.81816775 98.8284315,7.72819014 C98.8284315,8.58221115 97.9604102,8.94622011 97.0363874,8.94622011 C95.6923544,8.94622011 94.9503361,8.44220771 94.824333,7.30817981 L92.4162737,7.30817981 C92.4862755,9.56223526 94.2503189,10.850267 97.0363874,10.850267 L97.0363874,10.850267 Z M101.880507,4.55011195 L103.000534,4.55011195 L103.000534,8.7222146 C103.000534,10.2342518 103.938557,10.6822628 105.324591,10.6822628 C105.912606,10.6822628 106.360617,10.6122611 106.598623,10.5702601 L106.598623,8.93221976 L106.48662,8.93221976 C106.346616,8.94622011 106.122611,8.96022045 105.982608,8.96022045 C105.464595,8.96022045 105.156587,8.80621666 105.156587,8.24620288 L105.156587,4.55011195 L106.612623,4.55011195 L106.612623,3.1500775 L105.156587,3.1500775 L105.156587,0.770018945 L103.000534,0.770018945 L103.000534,3.1500775 L101.880507,3.1500775 L101.880507,4.55011195 Z M109.874703,3.1500775 L107.760651,3.1500775 L107.760651,10.5982608 L109.958705,10.5982608 L109.958705,7.14017567 C109.958705,5.68413985 110.742725,4.94212159 111.932754,4.95612194 C112.086758,4.95612194 112.240761,4.97012228 112.394765,4.99812297 L112.450767,4.99812297 L112.450767,3.08007578 C112.352764,3.03807475 112.19876,3.0240744 111.988755,3.0240744 C111.064733,3.0240744 110.392716,3.44408474 109.916704,4.48011023 L109.874703,4.48011023 L109.874703,3.1500775 Z M116.944877,10.8222663 C118.862924,10.8222663 120.080954,9.81424146 120.458964,8.49820908 L118.330911,8.49820908 C118.092905,8.96022045 117.658895,9.226227 116.972878,9.226227 C115.908852,9.226227 115.306837,8.55421046 115.166833,7.43418291 L120.598967,7.43418291 C120.612967,5.96414674 120.234958,4.70411574 119.394938,3.89209576 C118.736921,3.29008095 117.896901,2.94007234 116.832874,2.94007234 C114.564819,2.94007234 113.01078,4.64811436 113.01078,6.88816947 C113.01078,9.11422424 114.508817,10.8222663 116.944877,10.8222663 L116.944877,10.8222663 Z M116.832874,4.49411057 C117.700896,4.49411057 118.28891,5.12412607 118.358912,6.16015156 L115.180834,6.16015156 C115.320837,5.13812642 115.82485,4.49411057 116.832874,4.49411057 L116.832874,4.49411057 Z M126.479112,10.5982608 L128.621165,10.5982608 L128.621165,10.4722577 C128.42516,10.3462546 128.341158,10.0242466 128.341158,9.43623216 L128.341158,5.61413813 C128.341158,4.60611333 127.977149,3.83609438 127.20713,3.38808336 C126.689117,3.08007578 126.0171,2.94007234 125.065077,2.94007234 C122.853023,2.94007234 121.816997,4.13010161 121.760996,5.40413296 L123.791046,5.40413296 C123.847047,4.81611849 124.253057,4.42410885 125.093078,4.42410885 C125.849096,4.42410885 126.199105,4.7881178 126.199105,5.32013089 C126.199105,5.88014467 125.653091,6.09014984 124.323059,6.27215432 C122.699019,6.46815914 121.396987,6.88816947 121.396987,8.54021012 C121.396987,10.0102463 122.475013,10.7942656 123.945049,10.7942656 C125.093078,10.7942656 125.709093,10.3742552 126.199105,9.68823836 L126.227106,9.68823836 C126.269107,10.1082487 126.367109,10.4302566 126.479112,10.5982608 L126.479112,10.5982608 Z M124.631066,9.3522301 C124.029052,9.3522301 123.539039,9.11422424 123.539039,8.4702084 C123.539039,7.82619255 124.001051,7.58818669 124.967075,7.37818153 C125.457087,7.26617877 125.933098,7.15417602 126.255106,6.95817119 L126.255106,7.92419496 C126.255106,8.73621494 125.61109,9.3522301 124.631066,9.3522301 L124.631066,9.3522301 Z M129.825194,10.5982608 L132.023248,10.5982608 L132.023248,6.35615638 C132.023248,5.40413296 132.541261,4.74611677 133.31128,4.74611677 C134.039298,4.74611677 134.403307,5.23612883 134.403307,6.0481488 L134.403307,10.5982608 L136.601361,10.5982608 L136.601361,6.35615638 C136.601361,5.40413296 137.091373,4.74611677 137.875392,4.74611677 C138.58941,4.74611677 138.981419,5.23612883 138.981419,6.0481488 L138.981419,10.5982608 L141.165473,10.5982608 L141.165473,5.68413985 C141.165473,4.0320992 140.311452,2.94007234 138.659411,2.94007234 C137.721388,2.94007234 136.909368,3.36008267 136.293353,4.35410713 L136.265353,4.35410713 C135.887343,3.43008439 135.201326,2.94007234 134.221302,2.94007234 C133.171276,2.94007234 132.457259,3.43008439 131.981247,4.31210609 L131.939246,4.31210609 L131.939246,3.1500775 L129.825194,3.1500775 L129.825194,10.5982608 Z M142.551507,2.10005167 L144.777562,2.10005167 L144.777562,0.182004478 L142.551507,0.182004478 L142.551507,2.10005167 Z M142.565508,10.5982608 L144.763562,10.5982608 L144.763562,3.1500775 L142.565508,3.1500775 L142.565508,10.5982608 Z M148.34765,3.1500775 L146.219597,3.1500775 L146.219597,10.5982608 L148.417652,10.5982608 L148.417652,6.39815742 C148.417652,5.44613399 148.991666,4.76011711 149.845687,4.76011711 C150.657707,4.76011711 151.091717,5.30613055 151.091717,6.11815053 L151.091717,10.5982608 L153.275771,10.5982608 L153.275771,5.69814019 C153.275771,4.0320992 152.323748,2.94007234 150.685707,2.94007234 C149.649682,2.94007234 148.851662,3.38808336 148.389651,4.2841054 L148.34765,4.2841054 L148.34765,3.1500775 Z M158.133891,13.1883245 C159.225917,13.1883245 160.177941,12.9363183 160.821957,12.3763045 C161.423972,11.8442914 161.787981,11.0462718 161.787981,9.94024456 L161.787981,3.1500775 L159.687929,3.1500775 L159.687929,4.10210093 L159.659928,4.10210093 C159.239918,3.2760806 158.5259,2.94007234 157.517875,2.94007234 C155.68383,2.94007234 154.381798,4.43810919 154.381798,6.60816258 C154.381798,8.86221804 155.907836,10.1362494 157.629878,10.1362494 C158.553901,10.1362494 159.211917,9.77224043 159.645928,9.04422252 L159.701929,9.04422252 C159.673929,9.29622872 159.659928,9.64623733 159.659928,10.0242466 L159.659928,10.1782504 C159.659928,11.0882728 159.141915,11.6202859 158.10589,11.6202859 C157.251869,11.6202859 156.831859,11.3122783 156.691855,10.8642673 L154.549802,10.8642673 C154.773808,12.3343035 156.08984,13.1883245 158.133891,13.1883245 L158.133891,13.1883245 Z M158.11989,8.48420874 C157.139866,8.48420874 156.537851,7.72819014 156.537851,6.5521612 C156.537851,5.36213193 157.139866,4.60611333 158.10589,4.60611333 C159.183916,4.60611333 159.72993,5.43213365 159.72993,6.53816086 C159.72993,7.64418807 159.239918,8.48420874 158.11989,8.48420874 L158.11989,8.48420874 Z" id="Uplynk-Video-Streami" fill="#FFFFFF"></path></g></svg>