<svg width="186px" height="16px" viewBox="0 0 186 16" version="1.1" xmlns="http://www.w3.org/2000/svg" xmlns:xlink="http://www.w3.org/1999/xlink"><defs></defs><g id="Page-1" stroke="none" stroke-width="1" fill="none" fill-rule="evenodd"><path d="M5.824,13.224 C9.008,13.224 10.72,11.624 10.72,8.856 L10.72,1.096 L7.984,1.096 L7.984,8.872 C7.984,10.168 7.248,11.016 5.824,11.016 C4.288,11.016 3.6,10.216 3.6,8.92 L3.6,1.096 L0.88,1.096 L0.88,8.856 C0.88,11.656 2.592,13.224 5.824,13.224 L5.824,13.224 Z M12.416,15.832 L14.928,15.832 L14.928,13.8 C14.928,12.888 14.88,12.264 14.848,11.944 L14.88,11.944 C15.376,12.776 16.272,13.272 17.392,13.272 C19.664,13.272 21.136,11.512 21.136,8.744 C21.136,6.136 19.728,4.248 17.472,4.248 C16.304,4.248 15.456,4.728 14.88,5.704 L14.832,5.704 L14.832,4.488 L12.416,4.488 L12.416,15.832 Z M16.8,11.32 C15.52,11.32 14.848,10.28 14.848,8.824 C14.848,7.384 15.472,6.248 16.768,6.248 C18,6.248 18.592,7.304 18.592,8.824 C18.592,10.344 17.936,11.32 16.8,11.32 L16.8,11.32 Z M22.432,13 L24.96,13 L24.96,1.096 L22.432,1.096 L22.432,13 Z M28.496,15.848 C30.128,15.848 30.912,15.176 31.6,13.208 L34.64,4.488 L32.144,4.488 L31.104,7.752 C30.736,8.888 30.352,10.712 30.352,10.712 L30.32,10.712 C30.32,10.712 30,8.904 29.616,7.752 L28.528,4.488 L25.888,4.488 L28.528,11.288 C28.832,12.056 28.976,12.712 28.976,13 C28.928,13.576 28.544,13.864 27.76,13.864 C27.696,13.864 26.976,13.864 26.944,13.848 L26.816,13.848 L26.816,15.816 C26.864,15.832 28.416,15.848 28.496,15.848 L28.496,15.848 Z M37.984,4.488 L35.552,4.488 L35.552,13 L38.064,13 L38.064,8.2 C38.064,7.112 38.72,6.328 39.696,6.328 C40.624,6.328 41.12,6.952 41.12,7.88 L41.12,13 L43.616,13 L43.616,7.4 C43.616,5.496 42.528,4.248 40.656,4.248 C39.472,4.248 38.56,4.76 38.032,5.784 L37.984,5.784 L37.984,4.488 Z M50.768,13 L53.68,13 L50.288,7.64 L53.328,4.488 L50.416,4.488 L47.616,7.544 C47.648,7 47.696,6.056 47.696,4.808 L47.696,1.096 L45.216,1.096 L45.216,13 L47.696,13 L47.696,10.168 L48.544,9.288 L50.768,13 Z M61.76,13 L64.624,13 L68.56,1.096 L65.808,1.096 L64.064,6.824 C63.68,8.136 63.264,10.328 63.264,10.328 L63.232,10.328 C63.232,10.328 62.816,8.136 62.416,6.824 L60.656,1.096 L57.824,1.096 L61.76,13 Z M69.536,3.288 L72.08,3.288 L72.08,1.096 L69.536,1.096 L69.536,3.288 Z M69.552,13 L72.064,13 L72.064,4.488 L69.552,4.488 L69.552,13 Z M76.976,13.272 C78.128,13.272 79.072,12.792 79.568,11.752 L79.6,11.752 L79.6,13 L82.016,13 L82.016,1.096 L79.504,1.096 L79.504,3.704 C79.504,4.424 79.536,5.144 79.568,5.672 L79.536,5.672 C78.96,4.792 78.176,4.248 77.008,4.248 C74.8,4.248 73.328,6.136 73.328,8.744 C73.328,11.56 74.768,13.272 76.976,13.272 L76.976,13.272 Z M77.648,11.256 C76.48,11.256 75.888,10.264 75.888,8.728 C75.888,7.208 76.48,6.152 77.664,6.152 C78.96,6.152 79.584,7.24 79.584,8.744 C79.584,10.232 78.864,11.256 77.648,11.256 L77.648,11.256 Z M87.776,13.256 C89.968,13.256 91.36,12.104 91.792,10.6 L89.36,10.6 C89.088,11.128 88.592,11.432 87.808,11.432 C86.592,11.432 85.904,10.664 85.744,9.384 L91.952,9.384 C91.968,7.704 91.536,6.264 90.576,5.336 C89.824,4.648 88.864,4.248 87.648,4.248 C85.056,4.248 83.28,6.2 83.28,8.76 C83.28,11.304 84.992,13.256 87.776,13.256 L87.776,13.256 Z M87.648,6.024 C88.64,6.024 89.312,6.744 89.392,7.928 L85.76,7.928 C85.92,6.76 86.496,6.024 87.648,6.024 L87.648,6.024 Z M97.328,13.272 C100.032,13.272 101.808,11.304 101.808,8.76 C101.808,6.2 100.032,4.248 97.328,4.248 C94.608,4.248 92.816,6.2 92.816,8.76 C92.816,11.304 94.608,13.272 97.328,13.272 L97.328,13.272 Z M97.312,11.448 C96.032,11.448 95.36,10.36 95.36,8.76 C95.36,7.144 96.032,6.04 97.312,6.04 C98.56,6.04 99.264,7.144 99.264,8.76 C99.264,10.36 98.56,11.448 97.312,11.448 L97.312,11.448 Z M111.776,13.288 C114.496,13.288 116.576,11.912 116.576,9.448 C116.576,6.936 114.608,6.232 112.464,5.752 C110.592,5.336 109.568,5.128 109.568,4.2 C109.568,3.448 110.32,2.968 111.44,2.968 C112.624,2.968 113.36,3.512 113.504,4.44 L116.176,4.44 C116,2.104 114.144,0.888 111.52,0.888 C108.896,0.888 106.88,2.008 106.88,4.472 C106.88,6.952 108.768,7.528 111.088,8.056 C112.816,8.456 113.824,8.68 113.824,9.72 C113.824,10.696 112.832,11.112 111.776,11.112 C110.24,11.112 109.392,10.536 109.248,9.24 L106.496,9.24 C106.576,11.816 108.592,13.288 111.776,13.288 L111.776,13.288 Z M117.312,6.088 L118.592,6.088 L118.592,10.856 C118.592,12.584 119.664,13.096 121.248,13.096 C121.92,13.096 122.432,13.016 122.704,12.968 L122.704,11.096 L122.576,11.096 C122.416,11.112 122.16,11.128 122,11.128 C121.408,11.128 121.056,10.952 121.056,10.312 L121.056,6.088 L122.72,6.088 L122.72,4.488 L121.056,4.488 L121.056,1.768 L118.592,1.768 L118.592,4.488 L117.312,4.488 L117.312,6.088 Z M126.448,4.488 L124.032,4.488 L124.032,13 L126.544,13 L126.544,9.048 C126.544,7.384 127.44,6.536 128.8,6.552 C128.976,6.552 129.152,6.568 129.328,6.6 L129.392,6.6 L129.392,4.408 C129.28,4.36 129.104,4.344 128.864,4.344 C127.808,4.344 127.04,4.824 126.496,6.008 L126.448,6.008 L126.448,4.488 Z M134.528,13.256 C136.72,13.256 138.112,12.104 138.544,10.6 L136.112,10.6 C135.84,11.128 135.344,11.432 134.56,11.432 C133.344,11.432 132.656,10.664 132.496,9.384 L138.704,9.384 C138.72,7.704 138.288,6.264 137.328,5.336 C136.576,4.648 135.616,4.248 134.4,4.248 C131.808,4.248 130.032,6.2 130.032,8.76 C130.032,11.304 131.744,13.256 134.528,13.256 L134.528,13.256 Z M134.4,6.024 C135.392,6.024 136.064,6.744 136.144,7.928 L132.512,7.928 C132.672,6.76 133.248,6.024 134.4,6.024 L134.4,6.024 Z M145.424,13 L147.872,13 L147.872,12.856 C147.648,12.712 147.552,12.344 147.552,11.672 L147.552,7.304 C147.552,6.152 147.136,5.272 146.256,4.76 C145.664,4.408 144.896,4.248 143.808,4.248 C141.28,4.248 140.096,5.608 140.032,7.064 L142.352,7.064 C142.416,6.392 142.88,5.944 143.84,5.944 C144.704,5.944 145.104,6.36 145.104,6.968 C145.104,7.608 144.48,7.848 142.96,8.056 C141.104,8.28 139.616,8.76 139.616,10.648 C139.616,12.328 140.848,13.224 142.528,13.224 C143.84,13.224 144.544,12.744 145.104,11.96 L145.136,11.96 C145.184,12.44 145.296,12.808 145.424,13 L145.424,13 Z M143.312,11.576 C142.624,11.576 142.064,11.304 142.064,10.568 C142.064,9.832 142.592,9.56 143.696,9.32 C144.256,9.192 144.8,9.064 145.168,8.84 L145.168,9.944 C145.168,10.872 144.432,11.576 143.312,11.576 L143.312,11.576 Z M149.248,13 L151.76,13 L151.76,8.152 C151.76,7.064 152.352,6.312 153.232,6.312 C154.064,6.312 154.48,6.872 154.48,7.8 L154.48,13 L156.992,13 L156.992,8.152 C156.992,7.064 157.552,6.312 158.448,6.312 C159.264,6.312 159.712,6.872 159.712,7.8 L159.712,13 L162.208,13 L162.208,7.384 C162.208,5.496 161.232,4.248 159.344,4.248 C158.272,4.248 157.344,4.728 156.64,5.864 L156.608,5.864 C156.176,4.808 155.392,4.248 154.272,4.248 C153.072,4.248 152.256,4.808 151.712,5.816 L151.664,5.816 L151.664,4.488 L149.248,4.488 L149.248,13 Z M163.792,3.288 L166.336,3.288 L166.336,1.096 L163.792,1.096 L163.792,3.288 Z M163.808,13 L166.32,13 L166.32,4.488 L163.808,4.488 L163.808,13 Z M170.416,4.488 L167.984,4.488 L167.984,13 L170.496,13 L170.496,8.2 C170.496,7.112 171.152,6.328 172.128,6.328 C173.056,6.328 173.552,6.952 173.552,7.88 L173.552,13 L176.048,13 L176.048,7.4 C176.048,5.496 174.96,4.248 173.088,4.248 C171.904,4.248 170.992,4.76 170.464,5.784 L170.416,5.784 L170.416,4.488 Z M181.6,15.96 C182.848,15.96 183.936,15.672 184.672,15.032 C185.36,14.424 185.776,13.512 185.776,12.248 L185.776,4.488 L183.376,4.488 L183.376,5.576 L183.344,5.576 C182.864,4.632 182.048,4.248 180.896,4.248 C178.8,4.248 177.312,5.96 177.312,8.44 C177.312,11.016 179.056,12.472 181.024,12.472 C182.08,12.472 182.832,12.056 183.328,11.224 L183.392,11.224 C183.36,11.512 183.344,11.912 183.344,12.344 L183.344,12.52 C183.344,13.56 182.752,14.168 181.568,14.168 C180.592,14.168 180.112,13.816 179.952,13.304 L177.504,13.304 C177.76,14.984 179.264,15.96 181.6,15.96 L181.6,15.96 Z M181.584,10.584 C180.464,10.584 179.776,9.72 179.776,8.376 C179.776,7.016 180.464,6.152 181.568,6.152 C182.8,6.152 183.424,7.096 183.424,8.36 C183.424,9.624 182.864,10.584 181.584,10.584 L181.584,10.584 Z" id="Uplynk-Video-Streami" fill="#FFFFFF"></path></g></svg>