<svg width="14" height="14" viewBox="0 0 14 14" xmlns="http://www.w3.org/2000/svg"><path d="M6.556 0C2.886.05-.05 3.065 0 6.735c.05 3.667 3.064 6.603 6.734 6.554 3.668-.05 6.604-3.064 6.554-6.733C13.24 2.887 10.225-.05 6.556 0zm-.02 10.69H6.5c-.565-.018-.964-.435-.948-.99.016-.548.424-.946.97-.946h.034c.58.018.975.43.958 1.003-.016.548-.418.932-.977.932zm2.378-4.72c-.134.19-.426.424-.794.71l-.406.28c-.223.175-.357.337-.407.497-.04.127-.06.16-.063.416v.066H5.696l.004-.133c.02-.54.033-.855.256-1.117.35-.41 1.123-.91 1.156-.93.11-.083.203-.178.273-.28.163-.223.234-.4.234-.573 0-.24-.072-.463-.213-.66-.136-.192-.394-.29-.766-.29-.37 0-.622.12-.774.36-.156.247-.234.507-.234.772v.066H4.036l.003-.07c.04-.977.39-1.68 1.036-2.092.406-.262.91-.394 1.5-.394.772 0 1.425.188 1.938.557.52.375.784.937.784 1.67 0 .41-.13.795-.384 1.144z"/></svg>