<svg width="17" height="16" view-box="0 0 17 16" xmlns="http://www.w3.org/2000/svg"><path d="M12.51 9.269l-.708-.702A3.938 3.938 0 0 0 13 5.737c0-1.06-.42-2.024-1.104-2.736l.708-.701A4.92 4.92 0 0 1 14 5.737c0 1.382-.57 2.632-1.49 3.532zm-7.97.124A4.924 4.924 0 0 1 3 5.814c0-1.358.55-2.589 1.443-3.484l.707.701a3.94 3.94 0 0 0 .097 5.66l-.708.702zm10.09 1.783l-.706-.701A6.891 6.891 0 0 0 16 5.54c0-1.882-.755-3.59-1.982-4.84L14.725 0A7.873 7.873 0 0 1 17 5.541a7.876 7.876 0 0 1-2.37 5.635zm-12.212.094A7.877 7.877 0 0 1 0 5.588C0 3.408.887 1.434 2.322 0l.707.701A6.89 6.89 0 0 0 1 5.588c0 1.954.814 3.72 2.125 4.981l-.707.701zM9.5 7.732V16h-2V7.732a2 2 0 1 1 2 0z" fill-rule="evenodd"/></svg>
