<svg xmlns="http://www.w3.org/2000/svg" width="16" height="16" viewBox="0 0 16 16"><path d="M7.203 15.967c-1.233-.118-2.48-.56-3.552-1.26-.897-.585-1.1-.826-1.1-1.307 0-.965 1.06-2.655 2.878-4.583C6.46 7.723 7.898 6.44 8.053 6.475c.302.067 2.717 2.422 3.622 3.53 1.43 1.754 2.087 3.19 1.753 3.83-.254.486-1.83 1.437-2.986 1.802-.954.3-2.207.428-3.24.33zm-5.866-3.57C.59 11.252.213 10.127.03 8.497c-.06-.54-.038-.847.137-1.95.22-1.378 1.003-2.97 1.946-3.95.4-.418.437-.428.926-.263.593.2 1.228.638 2.212 1.527l.574.52-.314.385c-1.455 1.787-2.99 4.32-3.57 5.887-.315.852-.442 1.707-.307 2.064.092.24.008.15-.298-.32zm13.1.194c.075-.358-.018-1.02-.237-1.685-.473-1.444-2.055-4.128-3.508-5.954l-.458-.573.495-.455c.645-.593 1.094-.948 1.578-1.25.382-.237.927-.448 1.162-.448.145 0 .654.53 1.065 1.105.637.892 1.105 1.974 1.342 3.1.154.728.166 2.286.025 3.013-.116.595-.36 1.368-.6 1.893-.18.392-.625 1.155-.82 1.404-.1.127-.1.127-.044-.15zM7.336 1.953c-.67-.34-1.705-.706-2.276-.804-.2-.034-.543-.053-.76-.043-.472.024-.45 0 .306-.357C5.234.45 5.76.276 6.47.128c.8-.17 2.306-.17 3.094-.005.852.18 1.854.552 2.42.9l.166.102-.385-.02c-.765-.038-1.88.27-3.078.854-.36.174-.675.315-.698.31-.024-.004-.318-.147-.655-.318z"/></svg>