<svg width="88" height="142" xmlns="http://www.w3.org/2000/svg"><defs><linearGradient x1="50%" y1="15.456%" x2="50%" y2="100%" id="a"><stop stop-color="#CD040B" offset="0%"/><stop stop-color="#E85358" offset="100%"/></linearGradient><linearGradient x1="50%" y1="0%" x2="50%" y2="100%" id="b"><stop stop-color="#C5C5C5" offset="0%"/><stop stop-color="#F6F6F6" offset="100%"/></linearGradient></defs><g fill="none" fill-rule="evenodd"><path d="M44 142c24.3 0 44-19.7 44-44S68.3 54.5 44 54.5 0 73.7 0 98s19.7 44 44 44z" fill="url(#a)"/><path d="M14.667 130.83c9.001-8.031 14.666-19.704 14.666-32.695 0-.576-.01-1.15-.033-1.72h.033V56.766A44.05 44.05 0 0 1 44 54.27c24.3 0 44 19.64 44 43.865C88 122.361 68.3 142 44 142a43.913 43.913 0 0 1-29.333-11.17zM0 98.37L0 98.136v-1.72h.033c-.02.5-.03 1-.032 1.505L0 96.415V41.369C0 22.269 12.244 6.022 29.333 0v56.766z" fill="url(#b)"/></g></svg>